<?xml version="1.0" encoding="UTF-8" standalone="no"?>
<!-- Created with Inkscape (http://www.inkscape.org/) -->

<svg
   xmlns:dc="http://purl.org/dc/elements/1.1/"
   xmlns:cc="http://creativecommons.org/ns#"
   xmlns:rdf="http://www.w3.org/1999/02/22-rdf-syntax-ns#"
   xmlns:svg="http://www.w3.org/2000/svg"
   xmlns="http://www.w3.org/2000/svg"
   xmlns:sodipodi="http://sodipodi.sourceforge.net/DTD/sodipodi-0.dtd"
   xmlns:inkscape="http://www.inkscape.org/namespaces/inkscape"
   width="8.5in"
   height="11in"
   viewBox="0 0 765 990"
   id="svg2"
   version="1.1"
   inkscape:version="0.91 r13725"
   inkscape:export-filename="/home/dunn0172/gorgon.png"
   inkscape:export-xdpi="300.00412"
   inkscape:export-ydpi="300.00412"
   sodipodi:docname="gorgon.svg">
  <defs
     id="defs4">
    <style
       id="style4319"
       type="text/css">
    .str1 {stroke:#1F1A17;stroke-width:0.1764}
    .str2 {stroke:#1F1A17;stroke-width:0.3528}
    .str0 {stroke:#131516;stroke-width:0.3528}
    .str4 {stroke:#EEB300;stroke-width:0.3528}
    .str3 {stroke:#F5D300;stroke-width:0.3528}
    .fil6 {fill:none}
    .fil7 {fill:#1F1A17}
    .fil9 {fill:white}
    .fil12 {fill:#009F3C}
    .fil10 {fill:#00A03B}
    .fil5 {fill:#2DA638}
    .fil8 {fill:#4E9145}
    .fil11 {fill:#65B857}
    .fil1 {fill:#DA2724}
    .fil4 {fill:#E4A615}
    .fil3 {fill:#EFC899}
    .fil13 {fill:#F3E400}
    .fil0 {fill:#F5CB00}
    .fil2 {fill:#1F1A17;fill-rule:nonzero}
    .fil14 {fill:#EEB300;fill-rule:nonzero}
  </style>
  </defs>
  <sodipodi:namedview
     id="base"
     pagecolor="#ffffff"
     bordercolor="#666666"
     borderopacity="1.0"
     inkscape:pageopacity="0.0"
     inkscape:pageshadow="2"
     inkscape:zoom="0.7071068"
     inkscape:cx="74.999168"
     inkscape:cy="621.23525"
     inkscape:document-units="px"
     inkscape:current-layer="layer1"
     showgrid="false"
     inkscape:window-width="1680"
     inkscape:window-height="1026"
     inkscape:window-x="0"
     inkscape:window-y="24"
     inkscape:window-maximized="1"
     units="in" />
  <metadata
     id="metadata7">
    <rdf:RDF>
      <cc:Work
         rdf:about="">
        <dc:format>image/svg+xml</dc:format>
        <dc:type
           rdf:resource="http://purl.org/dc/dcmitype/StillImage" />
        <dc:title />
      </cc:Work>
    </rdf:RDF>
  </metadata>
  <g
     inkscape:label="Layer 1"
     inkscape:groupmode="layer"
     id="layer1"
     transform="translate(0,-62.362205)">
    <g
       id="g4202"
       transform="matrix(3.8590315,0,0,3.9579552,-1065.5419,-1249.8391)">
      <path
         style="fill:#ebb437;stroke:#000000;stroke-width:1.9937408;stroke-linecap:round;stroke-linejoin:round;stroke-miterlimit:10"
         id="path20-7"
         d="m 400.16114,421.11928 c -0.347,14.66478 9.723,26.05118 9.723,26.05118 0,0 5.095,-5.77866 8.594,-5.77866 4.08,0 30.209,13.45737 34.896,12.59479 1.813,-0.3339 -2.594,-19.52024 -6.338,-29.50247 -3.559,-9.48932 -10.156,-18.54736 -17.447,-21.82475 -4.333,-1.94675 -16.667,-3.10547 -21.875,0.34583 -5.209,3.44931 -7.435,13.11154 -7.553,18.11408 z"
         stroke-miterlimit="10"
         inkscape:connector-curvature="0" />
      <path
         style="fill:#ebb432;stroke:#000000;stroke-width:1.9937408;stroke-linecap:round;stroke-linejoin:round;stroke-miterlimit:10"
         id="path23"
         d="m 353.40714,420.60154 c 0.054,12.50834 -9.321,26.74084 -9.321,26.74084 0,0 -5.496,-6.46833 -8.995,-6.46833 -4.079,0 -31.543,14.66379 -36.23,13.80121 -1.814,-0.3339 3.929,-20.72765 7.672,-30.70888 3.559,-9.48833 10.156,-18.54736 17.448,-21.82475 4.333,-1.94775 16.667,-3.10547 21.875,0.34483 5.207,3.4513 7.53,13.11155 7.551,18.11508 z"
         stroke-miterlimit="10"
         inkscape:connector-curvature="0" />
      <path
         sodipodi:nodetypes="ccccscccccccccccccccccccccccccc"
         style="stroke:#000000;stroke-width:0.9968704;stroke-linecap:round;stroke-linejoin:round"
         id="path26-4"
         d="m 313.87714,410.85384 c 9.07065,-11.87516 11.56954,-11.06 20.052,-16.13255 2.431,-9.57478 8.854,-15.22525 20.92,-15.44089 3.646,-4.39934 12.5,-13.37092 23.525,-4.83063 9.461,-8.28092 14.54515,1.64208 18.445,1.42305 13.354,-0.75 13.54,2.5508 22.18,14.70851 3.28511,6.37283 7.771,11.6875 7.771,11.6875 -7.683,4.91708 -0.076,15.02849 -6.12,21.47992 -3.516,3.7524 -8.463,5.30563 -13.802,3.49403 0.253,4.91509 2.518,10.78318 8.333,15.26798 -1.562,20.31524 -17.101,28.20861 -24.609,33.38406 1.736,3.27739 1.579,6.89563 1.433,7.5058 -0.8,2.58275 -0.944,1.73509 -0.745,4.41722 1.86512,8.25028 0,0 3.001,10.23563 1.4,2.7825 3.2,5.66338 6.5,6.35901 5,1.1925 13.121,4.35064 17.72,6.93539 -6.099,0.48338 -26.713,8.70386 -31.513,-3.91228 33.42167,5.82551 -2.25,-3 5.339,5.09791 -0.3,-1.98849 8.427,15.73 6.726,15.03338 -0.043,6.07281 -1.783,15.44189 -2.083,15.44189 -2.8,-9.54199 -5.632,-14.76415 -11.632,-22.51541 -1.909,-1.72614 -8.254,-9.88073 -10.153,-9.38385 -6.30161,-2.49822 -3.54519,-0.23028 -9.041,-3.83062 -1.601,-6.16126 -1.705,-9.59608 -1.205,-15.85671 0.5,-2.28562 -2.518,-3.79513 -3.038,-6.98706 -0.701,-3.17901 2.229,-7.25835 1.128,-10.43736 -12.413,-6.12449 -22.179,-14.01785 -23.481,-31.35681 0,0 0.998,-7.37562 5.599,-13.84593 -5.729,-1.8116 -12.109,-6.42658 -13.672,-14.88042 -7.682,11.51558 -19.922,12.81044 -25.781,12.2927 1.432,-6.46833 6.38,-13.84394 8.203,-15.35346 z"
         inkscape:connector-curvature="0" />
      <path
         style="fill:none;stroke:#000000;stroke-width:0.9968704;stroke-linecap:round;stroke-linejoin:round;stroke-miterlimit:10"
         id="path29"
         d="m 339.48514,428.01989 c -3.299,4.91708 -4.081,12.76771 -4.081,12.76771"
         stroke-miterlimit="10"
         inkscape:connector-curvature="0" />
      <path
         style="fill:none;stroke:#000000;stroke-width:0.9968704;stroke-linecap:round;stroke-linejoin:round;stroke-miterlimit:10"
         id="path32-0"
         d="m 336.01214,423.5341 c -4.34,6.21094 -5.902,18.11508 -5.902,18.11508"
         stroke-miterlimit="10"
         inkscape:connector-curvature="0" />
      <path
         style="fill:none;stroke:#000000;stroke-width:0.9968704;stroke-linecap:round;stroke-linejoin:round;stroke-miterlimit:10"
         id="path35"
         d="m 331.75914,419.65251 c -5.035,8.02255 -7.292,24.49893 -7.292,24.49893"
         stroke-miterlimit="10"
         inkscape:connector-curvature="0" />
      <path
         style="fill:none;stroke:#000000;stroke-width:0.9968704;stroke-linecap:round;stroke-linejoin:round;stroke-miterlimit:10"
         id="path38-9"
         d="m 325.59614,421.46312 c -8.594,13.97412 -8.247,26.13862 -8.247,26.13862"
         stroke-miterlimit="10"
         inkscape:connector-curvature="0" />
      <path
         style="fill:none;stroke:#000000;stroke-width:0.9968704;stroke-linecap:round;stroke-linejoin:round;stroke-miterlimit:10"
         id="path41"
         d="m 316.74114,426.63957 c -8.594,13.62929 -7.552,24.49794 -7.552,24.49794"
         stroke-miterlimit="10"
         inkscape:connector-curvature="0" />
      <path
         style="fill:none;stroke:#000000;stroke-width:0.9968704;stroke-linecap:round;stroke-linejoin:round;stroke-miterlimit:10"
         id="path44-4"
         d="m 412.48814,429.91795 c 3.559,4.40033 4.167,11.55931 4.167,11.55931"
         stroke-miterlimit="10"
         inkscape:connector-curvature="0" />
      <path
         style="fill:none;stroke:#000000;stroke-width:0.9968704;stroke-linecap:round;stroke-linejoin:round;stroke-miterlimit:10"
         id="path47"
         d="m 416.48114,428.1928 c 3.385,3.88159 5.469,13.63028 5.469,13.63028"
         stroke-miterlimit="10"
         inkscape:connector-curvature="0" />
      <path
         style="fill:none;stroke:#000000;stroke-width:0.9968704;stroke-linecap:round;stroke-linejoin:round;stroke-miterlimit:10"
         id="path50-8"
         d="m 420.56114,424.65505 c 5.208,6.29839 7.031,19.23702 7.031,19.23702"
         stroke-miterlimit="10"
         inkscape:connector-curvature="0" />
      <path
         style="fill:none;stroke:#000000;stroke-width:0.9968704;stroke-linecap:round;stroke-linejoin:round;stroke-miterlimit:10"
         id="path53"
         d="m 424.64014,419.73896 c 9.636,13.45638 9.983,27.08667 9.983,27.08667"
         stroke-miterlimit="10"
         inkscape:connector-curvature="0" />
      <path
         style="fill:none;stroke:#000000;stroke-width:0.9968704;stroke-linecap:round;stroke-linejoin:round;stroke-miterlimit:10"
         id="path56-8"
         d="m 434.18914,422.93089 c 8.594,13.62929 8.507,27.86278 8.507,27.86278"
         stroke-miterlimit="10"
         inkscape:connector-curvature="0" />
      <path
         style="fill:#ffc8a0;stroke:#000000;stroke-width:1.9937408;stroke-linecap:round;stroke-linejoin:round;stroke-miterlimit:10"
         id="path59"
         d="m 376.72414,404.55644 c 10.417,0 28.109,4.87534 29.427,24.15311 1.91,27.94924 -21.181,44.51208 -29.341,44.51208 -9.288,0 -31.076,-16.21702 -29.166,-45.2882 1.256,-19.10883 18.83,-23.37699 29.08,-23.37699 z"
         stroke-miterlimit="10"
         inkscape:connector-curvature="0" />
      <path
         style="stroke:#000000;stroke-width:0.9968704;stroke-linecap:round;stroke-linejoin:round;stroke-miterlimit:10"
         id="path62-2"
         d="m 396.51614,433.79855 c 0,0 -3.126,-1.85434 -6.077,-1.81062 -2.951,0.0427 -6.076,2.06999 -6.076,2.06999 0,0 3.689,2.15644 6.38,2.15743 2.691,9.9e-4 5.773,-2.4168 5.773,-2.4168 z"
         stroke-miterlimit="10"
         inkscape:connector-curvature="0" />
      <path
         style="stroke:#000000;stroke-width:0.9968704;stroke-linecap:round;stroke-linejoin:round;stroke-miterlimit:10"
         id="path65"
         d="m 369.60614,433.886 c 0,0 -3.559,-2.28662 -5.513,-2.58773 -1.953,-0.3011 -6.64,1.55224 -6.64,1.55224 0,0 3.603,2.75965 6.033,3.02001 2.431,0.25937 6.12,-1.98452 6.12,-1.98452 z"
         stroke-miterlimit="10"
         inkscape:connector-curvature="0" />
      <path
         style="fill:none;stroke:#000000;stroke-width:0.9968704;stroke-linecap:round;stroke-linejoin:round;stroke-miterlimit:10"
         id="path68-4"
         d="m 398.25214,427.5886 c 0,0 -3.299,-2.88983 -9.028,-2.71691 -5.729,0.17291 -8.55,3.62321 -9.244,5.04626 -0.442,0.9063 -0.26,11.60204 0.087,12.93963 0.347,1.33759 3.732,4.82963 3.298,6.55577 -0.434,1.72615 -2.127,0.94903 -3.342,1.6377 -1.215,0.69165 -2.213,1.55224 -3.038,1.55224 -1.562,0 -1.779,-0.90729 -3.472,-1.42305 -1.53,-0.46806 -3.473,0 -3.993,-1.42404 -0.518,-1.41511 1.605,-3.19193 1.605,-3.19193"
         stroke-miterlimit="10"
         inkscape:connector-curvature="0" />
      <path
         style="fill:none;stroke:#000000;stroke-width:0.9968704;stroke-linecap:round;stroke-linejoin:round;stroke-miterlimit:10"
         id="path71"
         d="m 370.90814,427.76052 c 0,0 -2.387,-2.75965 -7.986,-2.88883 -5.599,-0.13018 -9.071,3.40757 -9.461,4.6587 -0.39,1.25113 0.478,2.50127 0.478,2.50127"
         stroke-miterlimit="10"
         inkscape:connector-curvature="0" />
      <path
         style="fill:none;stroke:#000000;stroke-width:0.9968704;stroke-linecap:round;stroke-linejoin:round;stroke-miterlimit:10"
         id="path74-5"
         d="m 397.64414,437.85404 c 0,0 -3.429,3.36484 -7.205,3.36484 -3.776,0 -8.94,-3.88159 -8.94,-3.88159"
         stroke-miterlimit="10"
         inkscape:connector-curvature="0" />
      <path
         style="fill:none;stroke:#000000;stroke-width:0.9968704;stroke-linecap:round;stroke-linejoin:round;stroke-miterlimit:10"
         id="path77"
         d="m 370.08414,438.24161 c 0,0 -4.341,2.84709 -7.118,2.84709 -2.778,0 -4.515,-1.07822 -4.515,-1.07822"
         stroke-miterlimit="10"
         inkscape:connector-curvature="0" />
      <path
         ZZ="0"
         id="path82-5"
         d="m 376.63714,460.67056 c -0.89,0 -2.361,-0.64196 -2.361,-0.64196 -1.003,-0.1123 -3.933,-0.0487 -5.517,-0.3508 -1.685,-0.32098 -3.736,-1.93384 -3.928,-2.19917 -0.167,-0.23154 0.373,-0.68469 0.606,-0.85164 0.235,-0.16596 0.683,-0.16497 0.728,0.11825 0.163,1.03549 1.908,2.01136 2.789,2.15744 2.344,0.38855 5.625,-0.98382 5.755,-0.88544 l 1.919,0.44024 1.894,-0.49688 c 0.122,-0.0994 3.802,1.07027 6.492,0.85363 0.828,-0.0656 2.474,-0.92717 2.851,-2.09383 0.087,-0.27229 0.51,-0.25639 0.733,-0.0755 0.223,0.17986 0.59,0.69761 0.408,0.92021 -0.207,0.25241 -2.148,1.65956 -3.797,2.04812 -1.486,0.35079 -4.927,0.32396 -6.25,0.49687 0.001,0 -1.28,0.56048 -2.322,0.56048 z"
         inkscape:connector-curvature="0" />
      <path
         style="fill:none;stroke:#000000;stroke-width:1.49530566;stroke-linecap:round;stroke-linejoin:round;stroke-miterlimit:10"
         id="path85"
         d="m 381.84614,463.47393 c 0,0 -3.45,1.48864 -5.078,1.48864 -2.019,0 -5.426,-1.48864 -5.426,-1.48864"
         stroke-miterlimit="10"
         inkscape:connector-curvature="0" />
      <path
         style="fill:#ebb437;stroke:#ebb437;stroke-width:0.4984352;stroke-linecap:round;stroke-linejoin:round;stroke-miterlimit:10"
         id="path88-1"
         d="m 406.32514,393.90244 c -0.868,0.0427 -2.344,-2.63046 -2.344,-4.6587 0,-2.02725 -0.173,-3.88159 -1.649,-5.34737 -1.13,-1.12195 -3.212,-1.29387 -4.861,-1.22927 -1.649,0.0646 -4.774,0.5396 -4.817,-1.16468 -0.044,-1.70329 3.017,-3.73054 6.163,-3.73054 3.146,0 5.815,1.78975 6.987,3.4503 1.172,1.66056 1.966,4.5961 2.041,6.25467 0.085,1.89707 -0.1,6.35603 -1.52,6.42559 z"
         stroke-miterlimit="10"
         inkscape:connector-curvature="0" />
      <path
         style="fill:#ebb437;stroke:#ebb437;stroke-width:0.4984352;stroke-linecap:round;stroke-linejoin:round;stroke-miterlimit:10"
         id="path91"
         d="m 355.28314,381.89098 c 0.26,0.88444 -6.242,4.84354 -8.203,6.21094 -3.06,2.13458 -5.815,4.85248 -5.208,8.4757 0.476,2.84014 2.57,4.23934 4.427,4.70044 2.604,0.64693 5.946,-0.25838 5.946,-0.25838 0,0 0.282,1.66056 1.389,2.37308 1.107,0.71153 3.472,1.59497 3.472,1.59497 0,0 -4.362,1.8762 -9.375,1.61783 -5.013,-0.25937 -9.57,-3.36484 -9.961,-7.69958 -0.391,-4.33474 0.261,-7.5694 2.604,-10.54569 1.598,-2.02923 4.752,-4.6587 7.552,-5.75779 2.164,-0.85065 7.097,-1.59596 7.357,-0.71152 z"
         stroke-miterlimit="10"
         inkscape:connector-curvature="0" />
      <ellipse
         style="fill:#ebb437;stroke:#ebb437;stroke-width:0.49844739;stroke-linecap:round;stroke-linejoin:round;stroke-miterlimit:10"
         id="ellipse94"
         ry="1.1340247"
         rx="2.4045658"
         cy="-525.79034"
         cx="-79.218391"
         stroke-miterlimit="10"
         transform="matrix(-0.83954529,0.5432897,-0.54809417,-0.83641663,0,0)" />
      <path
         style="fill:#ebb437;stroke:#ebb437;stroke-width:0.4984352;stroke-linecap:round;stroke-linejoin:round;stroke-miterlimit:10"
         id="path97"
         d="m 368.76014,389.2656 c 0,0 -6.185,-0.0646 -8.333,1.55224 -1.807,1.36044 -2.213,2.58773 -1.823,3.49403 0.391,0.9063 1.758,1.74701 4.492,0.64693 3.11,-1.25014 5.664,-5.6932 5.664,-5.6932 z"
         stroke-miterlimit="10"
         inkscape:connector-curvature="0" />
      <ellipse
         style="fill:#ebb437;stroke:#ebb437;stroke-width:0.49844381;stroke-linecap:round;stroke-linejoin:round;stroke-miterlimit:10"
         id="ellipse100"
         ry="2.3956184"
         rx="5.0096717"
         cy="-484.56918"
         cx="-219.72217"
         stroke-miterlimit="10"
         transform="matrix(-0.94472727,0.32785727,-0.33154165,-0.94344058,0,0)" />
      <path
         style="fill:#ebb437;stroke:#ebb437;stroke-width:0.4984352;stroke-linecap:round;stroke-linejoin:round;stroke-miterlimit:10"
         id="path103"
         d="m 375.66114,380.20856 c 1.822,-2.00638 -0.679,-6.40472 -6.532,-6.40472 -5.469,0 -10.606,8.38427 -11.927,9.82421 -2.182,2.38004 -6.627,6.54683 -11.445,9.44064 -2.909,2.02029 0.086,5.44873 2.755,4.99657 1.099,-0.18682 8.326,-6.62136 10.091,-8.54029 2.083,-2.26476 4.439,-5.60277 5.403,-6.98706 1.172,-1.68242 3.3,-3.68781 4.818,-3.68781 3.321,0 5.357,2.98622 6.837,1.35846 z"
         stroke-miterlimit="10"
         inkscape:connector-curvature="0" />
      <path
         style="fill:#ebb437;stroke:#ebb437;stroke-width:0.4984352;stroke-linecap:round;stroke-linejoin:round;stroke-miterlimit:10"
         id="path106-7"
         d="m 391.87214,378.59073 c 0.718,-1.29287 -0.087,-4.14096 -5.426,-4.14096 -4.688,0 -9.802,8.73507 -10.785,10.3519 -1.628,2.67419 -3.624,6.42659 -8.442,9.70497 4.948,0.25937 8.052,0 8.052,0 0,0 2.994,-2.65232 4.166,-4.91708 1.172,-2.26475 2.148,-5.69319 3.061,-7.05165 0.911,-1.35846 2.233,-2.88585 3.58,-3.23466 1.497,-0.38855 4.752,1.16368 5.794,-0.71252 z"
         stroke-miterlimit="10"
         inkscape:connector-curvature="0" />
      <path
         style="fill:#ebb437;stroke:#ebb437;stroke-width:0.4984352;stroke-linecap:round;stroke-linejoin:round;stroke-miterlimit:10"
         id="path109"
         d="m 386.70714,381.48056 c 0.607,-0.77612 3.516,0.51774 4.036,1.03549 0.521,0.51774 2.561,5.34836 4.904,6.94433 2.344,1.59596 4.819,2.15644 5.687,2.54499 0.868,0.38856 2.561,3.06274 2.387,4.57225 -0.174,1.50951 -5.469,4.91708 -5.469,4.91708 0,0 0.869,-4.65871 -1.996,-6.51304 -2.277,-1.47374 -6.511,-0.99177 -8.03,-1.25114 -1.519,-0.25837 -6.554,-2.02725 -6.51,-3.4503 0.043,-1.42404 2.127,-4.74416 2.127,-4.74416 0,0 3.992,3.88159 4.947,2.88982 0.956,-0.99275 -2.691,-6.16821 -2.083,-6.94532 z"
         stroke-miterlimit="10"
         inkscape:connector-curvature="0" />
      <path
         style="fill:#ebb437;stroke:#ebb437;stroke-width:0.9968704;stroke-linecap:round;stroke-linejoin:round;stroke-miterlimit:10"
         id="path112-1"
         d="m 395.89814,398.66151 c -0.036,-0.9371 -6.027,-2.89777 -8.943,-2.94647 -2.915,-0.0487 -7.178,0.82482 -7.581,2.6563 -0.341,1.54528 3.5,4.58815 4.715,4.58815 1.214,0 1.991,-2.46351 3.838,-2.99517 1.846,-0.53166 8.068,1.3048 7.971,-1.30281 z"
         stroke-miterlimit="10"
         inkscape:connector-curvature="0" />
      <path
         style="fill:#ebb437;stroke:#000000;stroke-width:1.9937408;stroke-linecap:round;stroke-linejoin:round;stroke-miterlimit:10"
         id="path115"
         d="m 396.42914,413.52802 c -3.622,0.49588 -10.63,-0.79599 -13.541,-2.97628 -1.74,-1.30281 -9.433,-8.50849 -13.281,-9.18722 -4.492,-0.79202 -10.417,5.43482 -14.695,0.79599 -1.845,-2.00042 3.755,-4.16382 6.103,-4.79385 2.347,-0.62905 9.114,-1.69435 11.978,-0.91922 2.864,0.77512 9.007,6.14933 11.589,8.32763 2.579,2.17929 10.024,7.28618 11.847,8.75295 z"
         stroke-miterlimit="10"
         inkscape:connector-curvature="0" />
      <path
         style="fill:#ebb437;stroke:#ebb437;stroke-width:0.4984352;stroke-linecap:round;stroke-linejoin:round;stroke-miterlimit:10"
         id="path118-1"
         d="m 410.88214,384.34952 c 2.084,-0.45315 3.061,5.75779 3.19,8.73407 0.129,2.97628 -0.911,9.31641 -1.953,9.31641 -1.042,0 -1.692,-1.8116 -1.692,-1.8116 0,0 1.106,-4.07637 -0.912,-5.88798 0.391,-1.55223 0.977,-2.97628 0.781,-4.98167 -0.196,-2.00539 -0.815,-5.06514 0.586,-5.36923 z"
         stroke-miterlimit="10"
         inkscape:connector-curvature="0" />
      <path
         style="fill:#ebb437;stroke:#000000;stroke-width:0.9968704;stroke-linecap:round;stroke-linejoin:round;stroke-miterlimit:10"
         id="path121"
         d="m 408.73014,395.72697 c 3.386,1.30976 -3.727,9.7944 -5.269,10.69872 -3.023,1.77384 -11.971,2.29854 -13.979,1.28989 -2.341,-1.17561 -5.64,-4.10817 -5.64,-4.10817 0,0 11.246,1.80863 15.538,0.0855 4.958,-1.9875 7.264,-8.77283 9.35,-7.9659 z"
         stroke-miterlimit="10"
         inkscape:connector-curvature="0" />
      <ellipse
         style="fill:#ebb437;stroke:#ebb437;stroke-width:0.49841601;stroke-linecap:round;stroke-linejoin:round;stroke-miterlimit:10"
         id="ellipse124"
         ry="3.9523361"
         rx="1.9278456"
         cy="558.46637"
         cx="147.48404"
         stroke-miterlimit="10"
         transform="matrix(0.86471256,-0.50226704,0.50698284,0.86195615,0,0)" />
      <ellipse
         style="fill:#ebb437;stroke:#ebb437;stroke-width:0.49844566;stroke-linecap:round;stroke-linejoin:round;stroke-miterlimit:10"
         id="ellipse127"
         ry="2.072624"
         rx="1.5383618"
         cy="560.58453"
         cx="128.27499"
         stroke-miterlimit="10"
         transform="matrix(0.85195854,-0.52360924,0.5283795,0.84900831,0,0)" />
      <path
         style="fill:#ebb437;stroke:#ebb437;stroke-width:0.4984352;stroke-linecap:round;stroke-linejoin:round;stroke-miterlimit:10"
         id="path130-5"
         d="m 416.56814,392.86795 c -0.044,5.30563 -1.997,9.70497 -1.866,11.12802 0.13,1.42305 1.562,2.544 3.038,3.40657 1.477,0.86357 3.386,1.55224 3.906,1.07822 0.521,-0.47402 0.608,-2.02725 0.131,-2.88982 -0.479,-0.86258 -2.258,-1.07822 -2.692,-2.45854 -0.434,-1.37933 0.044,-2.97629 -0.26,-4.91708 -0.305,-1.9398 -1.605,-4.52753 -2.257,-5.34737 z"
         stroke-miterlimit="10"
         inkscape:connector-curvature="0" />
      <path
         style="fill:#ebb437;stroke:#000000;stroke-width:1.9937408;stroke-linecap:round;stroke-linejoin:round;stroke-miterlimit:10"
         id="path133"
         d="m 390.78714,408.6974 c 2.275,0.10335 8.371,-0.88941 9.636,-0.17192 1.266,0.7165 5.497,6.88769 5.902,8.62576 0.403,1.73906 0.057,4.39933 -1.057,5.6773 -4.412,-4.12506 -10.488,-11.45696 -14.481,-14.13114 z"
         stroke-miterlimit="10"
         inkscape:connector-curvature="0" />
      <path
         style="fill:#ebb437;stroke:#ebb437;stroke-width:0.4984352;stroke-linecap:round;stroke-linejoin:round;stroke-miterlimit:10"
         id="path136-2"
         d="m 407.75714,412.19043 c -1.995,0.51775 1.042,5.95257 0.912,7.24643 -0.131,1.29387 -2.04,2.88884 -1.996,3.53676 0.044,0.64793 3.992,3.32112 6.423,3.32112 1.998,0 5.989,-3.06175 6.641,-4.52852 0.652,-1.46678 1.302,-4.95981 0.825,-7.50481 -0.478,-2.54499 -4.602,-5.21818 -4.602,-5.21818 0,0 -1.084,2.06998 -1.128,3.66594 -0.044,1.59497 1.259,3.53676 1.433,4.83062 0.174,1.29387 -0.738,3.53776 -1.216,4.09724 -0.478,0.56047 -3.081,1.12194 -3.862,0.51774 -0.781,-0.6042 1.648,-3.32111 1.648,-5.34836 0,-1.81161 -3.082,-5.13372 -5.078,-4.61598 z"
         stroke-miterlimit="10"
         inkscape:connector-curvature="0" />
      <path
         style="fill:#ebb437;stroke:#000000;stroke-width:1.9937408;stroke-linecap:round;stroke-linejoin:round;stroke-miterlimit:10"
         id="path139"
         d="m 370.90814,402.14063 c 2.212,0 6.25,4.14096 6.25,4.14096 0,0 -6.666,3.71266 -9.859,4.50666 -3.195,0.79401 -8.497,1.11002 -11.55,2.04415 -3.053,0.93412 -5.785,8.31968 -8.557,8.17956 -2.772,-0.14012 -1.926,-4.80777 -1.926,-4.80777 0,0 0.799,-5.18241 4.321,-7.23649 3.523,-2.05408 9.208,-2.10079 12.824,-2.84709 3.618,-0.7483 5.256,-3.97998 8.497,-3.97998 z"
         stroke-miterlimit="10"
         inkscape:connector-curvature="0" />
      <path
         style="fill:#ebb437;stroke:#ebb437;stroke-width:0.4984352;stroke-linecap:round;stroke-linejoin:round;stroke-miterlimit:10"
         id="path142-7"
         d="m 344.43214,409.47352 c 0,0 -0.737,3.40757 -1.605,3.92532 -0.869,0.51774 -5.339,-4.48579 -5.208,-6.81515 0.13,-2.33531 6.813,2.88983 6.813,2.88983 z"
         stroke-miterlimit="10"
         inkscape:connector-curvature="0" />
      <ellipse
         style="fill:#ebb437;stroke:#ebb437;stroke-width:0.49842331;stroke-linecap:round;stroke-linejoin:round;stroke-miterlimit:10"
         id="ellipse145"
         ry="2.6735632"
         rx="1.0095532"
         cy="538.19586"
         cx="9.1509972"
         stroke-miterlimit="10"
         transform="matrix(0.78780469,-0.61592514,0.62071365,0.78403735,0,0)" />
      <path
         style="fill:#ebb437;stroke:#000000;stroke-width:0.9968704;stroke-linecap:round;stroke-linejoin:round;stroke-miterlimit:10"
         id="path148-6"
         d="m 336.45714,409.29166 c -1.897,-1.30578 -2.918,1.73609 -2.918,4.35064 0,3.14224 1.605,6.62236 4.329,9.57082 2.724,2.94845 9.343,4.63386 9.343,4.63386 l 0.911,-5.52128 c 0,0 -6.162,0.16695 -9.038,-3.36683 -2.676,-3.28633 -0.73,-8.36241 -2.627,-9.66721 z"
         stroke-miterlimit="10"
         inkscape:connector-curvature="0" />
      <path
         style="fill:#ebb437;stroke:#ebb437;stroke-width:0.4984352;stroke-linecap:round;stroke-linejoin:round;stroke-miterlimit:10"
         id="path151"
         d="m 336.53314,403.7366 c -3.646,2.54499 -5.078,7.46207 -5.078,7.46207 0,0 -1.78,-6.81415 -1.736,-9.4456 0.043,-2.63145 1.649,-5.90884 3.646,-5.73593 1.996,0.17192 1.302,5.089 3.168,7.71946 z"
         stroke-miterlimit="10"
         inkscape:connector-curvature="0" />
      <path
         style="fill:#ebb437;stroke:#ebb437;stroke-width:0.4984352;stroke-linecap:round;stroke-linejoin:round;stroke-miterlimit:10"
         id="path154-1"
         d="m 324.72814,405.16064 c 2.344,0 3.385,7.67673 3.298,8.88513 -0.087,1.2084 -3.125,4.82963 -6.597,6.98706 -3.473,2.15644 -8.637,3.53775 -10.156,2.32935 -1.52,-1.2084 2.167,-8.13286 4.297,-10.91238 2.213,-2.88982 6.814,-7.28916 9.158,-7.28916 z"
         stroke-miterlimit="10"
         inkscape:connector-curvature="0" />
      <path
         style="fill:#ebb437;stroke:#ebb437;stroke-width:0.4984352;stroke-linecap:round;stroke-linejoin:round;stroke-miterlimit:10"
         id="path157"
         d="m 405.73914,442.18878 c 0.3,1.02854 1.643,1.15673 3.301,0.67874 1.658,-0.478 2.208,-1.91397 1.907,-2.9425 -0.3,-1.02952 -1.338,-1.26306 -2.996,-0.78606 -1.658,0.478 -2.514,2.02129 -2.212,3.04982 z"
         stroke-miterlimit="10"
         inkscape:connector-curvature="0" />
      <path
         style="fill:#ebb437;stroke:#ebb437;stroke-width:0.4984352;stroke-linecap:round;stroke-linejoin:round;stroke-miterlimit:10"
         id="path160-4"
         d="m 412.18414,444.32336 c 0,0 -3.972,1.48765 -6.901,1.38032 0,0.81984 -1.823,4.22742 -1.823,4.22742 0,0 6.315,0.25936 7.812,-1.07822 1.498,-1.33759 0.912,-4.52952 0.912,-4.52952 z"
         stroke-miterlimit="10"
         inkscape:connector-curvature="0" />
      <path
         style="fill:#ebb437;stroke:#ebb437;stroke-width:0.4984352;stroke-linecap:round;stroke-linejoin:round;stroke-miterlimit:10"
         id="path163"
         d="m 412.31414,451.18223 c 0,0 -6.38,1.16467 -9.636,0.73239 -0.195,0.94903 -1.302,2.2429 -1.302,2.2429 0,0 4.731,3.62321 7.031,2.71691 2.301,-0.90531 3.907,-5.6922 3.907,-5.6922 z"
         stroke-miterlimit="10"
         inkscape:connector-curvature="0" />
      <path
         style="fill:#ebb437;stroke:#ebb437;stroke-width:0.4984352;stroke-linecap:round;stroke-linejoin:round;stroke-miterlimit:10"
         id="path166-2"
         d="m 407.62714,458.94541 c 0,0 -5.403,-1.03549 -7.747,-2.45954 -0.456,1.16468 -1.823,2.58773 -1.823,2.58773 0,0 2.474,3.17007 4.883,3.10547 2.409,-0.0646 4.687,-3.23366 4.687,-3.23366 z"
         stroke-miterlimit="10"
         inkscape:connector-curvature="0" />
      <path
         style="fill:#ebb437;stroke:#ebb437;stroke-width:0.4984352;stroke-linecap:round;stroke-linejoin:round;stroke-miterlimit:10"
         id="path169"
         d="m 403.46014,463.99167 c 0,0 -5.664,-1.29485 -7.096,-2.39394 -0.456,0.9053 -2.865,3.17006 -2.865,3.17006 0,0 2.084,2.52314 4.232,2.32935 2.148,-0.19378 5.729,-3.10547 5.729,-3.10547 z"
         stroke-miterlimit="10"
         inkscape:connector-curvature="0" />
      <path
         style="fill:#ebb437;stroke:#ebb437;stroke-width:0.4984352;stroke-linecap:round;stroke-linejoin:round;stroke-miterlimit:10"
         id="path172-3"
         d="m 391.35014,466.96696 5.859,2.20017 c 0,0 -3.189,2.7825 -5.989,2.91169 -2.8,0.12918 -3.841,-1.61783 -3.841,-1.61783 l 3.971,-3.49403 z"
         stroke-miterlimit="10"
         inkscape:connector-curvature="0" />
      <path
         style="fill:#ebb437;stroke:#ebb437;stroke-width:0.4984352;stroke-linecap:round;stroke-linejoin:round;stroke-miterlimit:10"
         id="path175"
         d="m 347.34014,438.63016 c 0.13,1.55224 -0.719,1.28592 -2.377,0.80792 -1.658,-0.47799 -2.758,-1.7003 -2.457,-2.72983 0.3,-1.02853 1.483,-1.27299 3.142,-0.79599 1.657,0.47898 1.603,1.65062 1.692,2.7179 z"
         stroke-miterlimit="10"
         inkscape:connector-curvature="0" />
      <path
         style="fill:#ebb437;stroke:#ebb437;stroke-width:0.4984352;stroke-linecap:round;stroke-linejoin:round;stroke-miterlimit:10"
         id="path178-2"
         d="m 341.35114,439.66565 c 0,0 3.27,3.32509 7.319,3.98295 -0.154,0.80594 1.405,4.9459 1.405,4.9459 0,0 -5.745,-1.3356 -7.552,-3.04088 -1.807,-1.70527 -1.172,-5.88797 -1.172,-5.88797 z"
         stroke-miterlimit="10"
         inkscape:connector-curvature="0" />
      <path
         style="fill:#ebb437;stroke:#ebb437;stroke-width:0.4984352;stroke-linecap:round;stroke-linejoin:round;stroke-miterlimit:10"
         id="path181"
         d="m 342.52314,448.98206 c 0,0 4.968,1.80565 8.919,2.84611 0.261,1.29485 1.367,3.7524 1.367,3.7524 0,0 -5.664,0.58234 -7.422,-0.51775 -2.55,-1.59497 -2.864,-6.08076 -2.864,-6.08076 z"
         stroke-miterlimit="10"
         inkscape:connector-curvature="0" />
      <path
         style="fill:#ebb437;stroke:#ebb437;stroke-width:0.4984352;stroke-linecap:round;stroke-linejoin:round;stroke-miterlimit:10"
         id="path184-2"
         d="m 346.42914,457.78073 c 0,0 5.507,0.6678 8.594,0.77612 0.13,1.09909 2.083,3.04088 2.083,3.04088 0,0 -4.098,2.53903 -6.51,1.09909 -2.413,-1.43895 -4.167,-4.91609 -4.167,-4.91609 z"
         stroke-miterlimit="10"
         inkscape:connector-curvature="0" />
      <path
         style="fill:#ebb437;stroke:#ebb437;stroke-width:0.4984352;stroke-linecap:round;stroke-linejoin:round;stroke-miterlimit:10"
         id="path187"
         d="m 352.93914,465.41472 c 0,0 4.492,-0.97089 5.924,-2.06998 0.456,0.90531 2.344,2.71692 2.344,2.71692 0,0 -1.953,2.39394 -4.102,2.20016 -2.149,-0.19378 -4.166,-2.8471 -4.166,-2.8471 z"
         stroke-miterlimit="10"
         inkscape:connector-curvature="0" />
      <path
         style="fill:#ebb437;stroke:#ebb437;stroke-width:0.4984352;stroke-linecap:round;stroke-linejoin:round;stroke-miterlimit:10"
         id="path190"
         d="m 363.35614,468.4556 -3.634,1.55224 c 0,0 1.028,2.04216 3.829,2.13458 1.953,0.0636 2.799,-1.42405 2.799,-1.42405 l -2.994,-2.26277 z"
         stroke-miterlimit="10"
         inkscape:connector-curvature="0" />
      <path
         style="fill:#ebb437;stroke:#ebb437;stroke-width:0.4984352;stroke-linecap:round;stroke-linejoin:round;stroke-miterlimit:10"
         id="path193"
         d="m 385.36114,472.14341 c -2.214,1.81061 -5.859,2.65232 -5.859,2.65232 0,0 7.489,12.03134 9.636,9.89875 3.254,-3.23466 -1.303,-10.73946 -3.777,-12.55107 z"
         stroke-miterlimit="10"
         inkscape:connector-curvature="0" />
      <path
         style="fill:#ebb437;stroke:#ebb437;stroke-width:0.4984352;stroke-linecap:round;stroke-linejoin:round;stroke-miterlimit:10"
         id="path196"
         d="m 374.48914,475.44366 c 0,0 -1.889,1.68142 -3.386,2.45853 3.125,1.42405 7.683,9.4456 9.114,5.82239 1.433,-3.62322 -5.728,-8.28092 -5.728,-8.28092 z"
         stroke-miterlimit="10"
         inkscape:connector-curvature="0" />
      <path
         style="fill:#ebb437;stroke:#ebb437;stroke-width:0.4984352;stroke-linecap:round;stroke-linejoin:round;stroke-miterlimit:10"
         id="path199"
         d="m 382.49714,484.88926 c 0,0 -1.209,2.55294 -0.977,4.01077 0.586,3.68781 9.114,8.02255 9.18,4.78789 0.064,-3.23565 -8.203,-8.79866 -8.203,-8.79866 z"
         stroke-miterlimit="10"
         inkscape:connector-curvature="0" />
      <path
         style="fill:#ebb437;stroke:#ebb437;stroke-width:0.4984352;stroke-linecap:round;stroke-linejoin:round;stroke-miterlimit:10"
         id="path202"
         d="m 368.36914,472.2726 2.93,1.8116 c 0,0 -2.019,3.36385 -4.297,2.32936 -2.279,-1.03549 1.367,-4.14096 1.367,-4.14096 z"
         stroke-miterlimit="10"
         inkscape:connector-curvature="0" />
      <ellipse
         style="fill:#ebb437;stroke:#ebb437;stroke-width:0.4984352;stroke-linecap:round;stroke-linejoin:round;stroke-miterlimit:10"
         id="ellipse205"
         ry="3.9143836"
         rx="2.8970001"
         cy="483.36783"
         cx="368.27115"
         stroke-miterlimit="10" />
      <path
         style="fill:#ebb437;stroke:#ebb437;stroke-width:0.4984352;stroke-linecap:round;stroke-linejoin:round;stroke-miterlimit:10"
         id="path208"
         d="m 374.29414,484.62989 c -0.781,1.22927 -1.953,3.04187 -1.953,3.04187 0,0 1.758,2.8461 2.278,5.49842 1.433,0.13018 3.19,-1.29386 3.19,-3.88159 0,-1.81161 -2.343,-4.52852 -3.515,-4.6587 z"
         stroke-miterlimit="10"
         inkscape:connector-curvature="0" />
      <path
         style="fill:#ebb437;stroke:#ebb437;stroke-width:0.4984352;stroke-linecap:round;stroke-linejoin:round;stroke-miterlimit:10"
         id="path211"
         d="m 380.34814,492.71703 -1.237,1.48764 c 0,0 2.995,6.27554 4.883,8.47471 1.302,-6.59851 -3.646,-9.96235 -3.646,-9.96235 z"
         stroke-miterlimit="10"
         inkscape:connector-curvature="0" />
      <path
         style="fill:#ebb437;stroke:#ebb437;stroke-width:0.4984352;stroke-linecap:round;stroke-linejoin:round;stroke-miterlimit:10"
         id="path214"
         d="m 386.92414,497.56951 c -0.456,0.77612 -0.325,4.13997 0.456,5.88698 0.781,1.74702 4.112,5.27781 6.836,6.14734 5.469,1.74702 17.708,0.9709 17.708,0.9709 0,0 -10.026,-4.27015 -14.714,-6.72869 -3.768,-1.97557 -6.25,-6.6631 -6.25,-6.6631 0,0 -3.58,-0.38955 -4.036,0.38657 z"
         stroke-miterlimit="10"
         inkscape:connector-curvature="0" />
      <path
         style="fill:#ebb437;stroke:#ebb437;stroke-width:0.4984352;stroke-linecap:round;stroke-linejoin:round;stroke-miterlimit:10"
         id="path217"
         d="m 369.67114,489.41778 c -1.562,0 -2.669,1.68142 -2.669,3.75141 0,1.55223 1.433,4.78789 3.255,4.91707 1.823,0.12919 2.019,-4.14096 2.019,-4.14096 0,0 -1.043,-4.52752 -2.605,-4.52752 z"
         stroke-miterlimit="10"
         inkscape:connector-curvature="0" />
      <path
         style="fill:#ebb437;stroke:#ebb437;stroke-width:0.4984352;stroke-linecap:round;stroke-linejoin:round;stroke-miterlimit:10"
         id="path220"
         d="m 376.44214,495.30476 c 0,0 -1.722,2.23097 -1.367,4.14095 0.911,4.91708 5.823,12.75479 8.203,14.94502 2.669,2.45854 5.338,6.65614 6.25,8.08714 2.474,3.88159 7.161,13.71674 7.161,13.71674 0,0 0.521,-7.24643 -1.302,-12.68125 -0.634,-1.89011 -3.842,-6.14635 -5.209,-8.02255 -1.367,-1.8762 -4.492,-4.27014 -6.575,-7.11625 -2.083,-2.8461 -7.161,-13.0698 -7.161,-13.0698 z"
         stroke-miterlimit="10"
         inkscape:connector-curvature="0" />
      <path
         style="fill:#ebb437;stroke:#ebb437;stroke-width:0.4984352;stroke-linecap:round;stroke-linejoin:round;stroke-miterlimit:10"
         id="path223"
         d="m 372.47014,500.22183 c 0.391,2.97629 2.734,6.47031 2.734,6.47031 0,0 -4.569,0.0606 -5.859,-2.00638 -1.172,-1.8762 -0.521,-4.07636 -0.521,-4.07636 0,0 1.954,-0.19279 3.646,-0.38757 z"
         stroke-miterlimit="10"
         inkscape:connector-curvature="0" />
    </g>
  </g>
</svg>
